<svg xmlns="http://www.w3.org/2000/svg" viewBox="0 0 64 64" width="64" height="64">
  <rect width="64" height="64" rx="14" fill="#0a0a0b"/>
  <g fill="none" stroke="#ffffff" stroke-width="2.6" stroke-linecap="round" stroke-linejoin="round">
    <path d="M16,18 q4,-2.2 8,0 q4,2.2 8,0 q4,-2.2 8,0 q4,2.2 8,0"/>
    <path d="M16,21.5 q4,-2.2 8,0 q4,2.2 8,0 q4,-2.2 8,0 q4,2.2 8,0"/>
    <path d="M16,25 q4,-2.2 8,0 q4,2.2 8,0 q4,-2.2 8,0 q4,2.2 8,0"/>
    <path d="M16,28.5 q4,-2.2 8,0 q4,2.2 8,0 q4,-2.2 8,0 q4,2.2 8,0"/>
    <path d="M16,32 q4,-2.2 8,0 q4,2.2 8,0 q4,-2.2 8,0 q4,2.2 8,0"/>
    <path d="M16,35.5 q4,-2.2 8,0 q4,2.2 8,0 q4,-2.2 8,0 q4,2.2 8,0"/>
    <path d="M16,39 q4,-2.2 8,0 q4,2.2 8,0 q4,-2.2 8,0 q4,2.2 8,0"/>
    <path d="M16,42.5 q4,-2.2 8,0 q4,2.2 8,0 q4,-2.2 8,0 q4,2.2 8,0"/>
    <path d="M16,46 q4,-2.2 8,0 q4,2.2 8,0 q4,-2.2 8,0 q4,2.2 8,0"/>
  </g>
</svg>
